<svg class="prefix__icon" viewBox="0 0 1024 1024" xmlns="http://www.w3.org/2000/svg" width="200" height="200"><path d="M511.764 131.708A446.146 446.146 0 10957.91 577.854a446.146 446.146 0 00-446.146-446.146zm0 519.76a71.83 71.83 0 1171.83-70.937 72.276 72.276 0 01-71.83 70.937z" fill="#F55E55"/><path d="M802.205.541l-168.197 37.03a67.814 67.814 0 00-53.091 66.03v120.013l3.569 349.779h114.213V223.614h108.86a26.323 26.323 0 0026.769-26.322V26.864A26.769 26.769 0 00802.205.54z" fill="#F9BBB8"/><path d="M511.764 386.457A186.935 186.935 0 10698.7 572.947a186.935 186.935 0 00-186.935-186.49zm0 264.565a71.383 71.383 0 1171.383-71.383 71.383 71.383 0 01-71.383 71.383z" fill="#F9BBB8"/></svg>